<svg xmlns="http://www.w3.org/2000/svg" viewBox="0 0 160 100" width="160" height="100">
  <rect width="160" height="100" fill="#1a1428"/>
  <rect x="28" y="12" width="104" height="76" rx="4" fill="#2a2038" stroke="#c084fc" stroke-width="2"/>
  <g opacity="0.9">
    <rect x="36" y="20" width="11" height="11" fill="#dcc95c"/><rect x="47" y="20" width="11" height="11" fill="#333"/>
    <rect x="58" y="20" width="11" height="11" fill="#dcc95c"/><rect x="69" y="20" width="11" height="11" fill="#333"/>
    <rect x="80" y="20" width="11" height="11" fill="#dcc95c"/><rect x="91" y="20" width="11" height="11" fill="#333"/>
    <rect x="102" y="20" width="11" height="11" fill="#dcc95c"/><rect x="113" y="20" width="11" height="11" fill="#333"/>
    <rect x="36" y="31" width="11" height="11" fill="#333"/><rect x="47" y="31" width="11" height="11" fill="#dcc95c"/>
    <rect x="58" y="31" width="11" height="11" fill="#333"/><rect x="69" y="31" width="11" height="11" fill="#dcc95c"/>
    <rect x="80" y="31" width="11" height="11" fill="#333"/><rect x="91" y="31" width="11" height="11" fill="#dcc95c"/>
    <rect x="102" y="31" width="11" height="11" fill="#333"/><rect x="113" y="31" width="11" height="11" fill="#dcc95c"/>
    <rect x="36" y="42" width="11" height="11" fill="#dcc95c"/><rect x="47" y="42" width="11" height="11" fill="#333"/>
    <rect x="58" y="42" width="11" height="11" fill="#dcc95c"/><rect x="69" y="42" width="11" height="11" fill="#333"/>
    <rect x="80" y="42" width="11" height="11" fill="#dcc95c"/><rect x="91" y="42" width="11" height="11" fill="#333"/>
    <rect x="102" y="42" width="11" height="11" fill="#dcc95c"/><rect x="113" y="42" width="11" height="11" fill="#333"/>
  </g>
  <circle cx="52" cy="68" r="5" fill="#fff8ee"/><circle cx="108" cy="68" r="5" fill="#111"/>
</svg>
